<?xml version="1.0" encoding="iso-8859-1"?>
<!-- Generator: Adobe Illustrator 19.0.0, SVG Export Plug-In . SVG Version: 6.00 Build 0)  -->
<svg version="1.1" id="Capa_1" xmlns="http://www.w3.org/2000/svg" xmlns:xlink="http://www.w3.org/1999/xlink" x="0px" y="0px"
	 viewBox="0 0 512 512" style="enable-background:new 0 0 512 512;" xml:space="preserve">
<path style="fill:#009245;" d="M0,105.931h335.448V512H0V105.931z"/>
<path style="fill:#F2F2F2;" d="M335.448,141.241H70.621v35.31H35.31v88.276h35.31v35.31h264.828V141.241z"/>
<g>
	<path style="fill:#50BB65;" d="M0,335.448h335.448v44.138H0V335.448z"/>
	<path style="fill:#50BB65;" d="M0,423.724h335.448v44.138H0V423.724z"/>
</g>
<circle style="fill:#009245;" cx="167.724" cy="220.69" r="35.31"/>
<path style="fill:#A67C52;" d="M273.655,132.414c-80.207,31.055-114.759,138.381-114.759,229.041
	c0,107.29,79.042,150.546,176.552,150.546S512,468.745,512,361.454c0-90.659-34.551-197.985-114.759-229.041H273.655z"/>
<path style="fill:#754C24;" d="M273.655,88.276h123.586v44.138H273.655V88.276z"/>
<path style="fill:#A67C52;" d="M397.241,88.276l35.31-26.483V0h-35.31l-17.655,17.655L361.931,0h-52.966L291.31,17.655L273.655,0
	h-35.31v61.793l35.31,26.483H397.241z"/>
<circle style="fill:#EEB83B;" cx="335.448" cy="326.621" r="123.586"/>
<circle style="fill:#FED856;" cx="335.448" cy="326.621" r="88.276"/>
<g>
	<path style="fill:#CD9829;" d="M344.276,283.763v-10.108h-17.655v10.108c-13.241,4.122-20.63,18.194-16.516,31.426
		c2.039,6.541,6.656,11.97,12.791,15.025l17.205,8.607c3.725,1.863,5.235,6.391,3.372,10.116c-1.271,2.551-3.884,4.167-6.735,4.167
		h-2.578c-4.158-0.009-7.53-3.381-7.539-7.539v-1.289h-17.655v1.289c0.044,10.973,7.186,20.648,17.655,23.914v10.108h17.655v-10.108
		c13.241-4.122,20.63-18.194,16.516-31.426c-2.039-6.541-6.656-11.97-12.791-15.025l-17.205-8.607
		c-3.725-1.863-5.235-6.391-3.372-10.116c1.271-2.551,3.884-4.167,6.735-4.167h2.578c4.158,0.009,7.53,3.381,7.539,7.539v1.289
		h17.655v-1.289C361.887,296.704,354.745,287.029,344.276,283.763z"/>
	<path style="fill:#CD9829;" d="M273.655,317.793h17.655v17.655h-17.655V317.793z"/>
	<path style="fill:#CD9829;" d="M379.586,317.793h17.655v17.655h-17.655V317.793z"/>
</g>
<g>
	<path style="fill:#50BB65;" d="M26.483,132.414h17.655v17.655H26.483V132.414z"/>
	<path style="fill:#50BB65;" d="M26.483,291.31h17.655v17.655H26.483V291.31z"/>
</g>
<g>
</g>
<g>
</g>
<g>
</g>
<g>
</g>
<g>
</g>
<g>
</g>
<g>
</g>
<g>
</g>
<g>
</g>
<g>
</g>
<g>
</g>
<g>
</g>
<g>
</g>
<g>
</g>
<g>
</g>
</svg>
